<svg xmlns="http://www.w3.org/2000/svg" width="21.142" height="28.67" viewBox="0 0 21.142 28.67"><defs><style>.a{fill:none;stroke:#fff;stroke-linecap:round;stroke-linejoin:round;stroke-width:1.5px;}</style></defs><g transform="translate(0.751 0.75)"><path class="a" d="M2005.061,1280.841l-.041,0a1.772,1.772,0,0,1-.922-.395,1.6,1.6,0,0,1-.549-2l0-.008.575-.913.08-.1a.954.954,0,0,1,.689-.4,1.115,1.115,0,0,1,.19-.008,1.679,1.679,0,0,1,1.057.479,1.637,1.637,0,0,1,.255,2.135l-.577.809A.917.917,0,0,1,2005.061,1280.841Z" transform="translate(-2001.178 -1261.274)"/><path class="a" d="M2006.917,1283.077a.921.921,0,0,1-.755.384l-.01,0a1.748,1.748,0,0,1-.983-.4,1.945,1.945,0,0,1-.683-1.041,1.187,1.187,0,0,1,.133-.96l.612-.987.013-.027,1.219-1.549a1,1,0,0,1,.713-.414,1.56,1.56,0,0,1,.2-.009,1.73,1.73,0,0,1,1.076.485,1.656,1.656,0,0,1,.434,1.831,1.509,1.509,0,0,1-.172.329Z" transform="translate(-2000.637 -1260.733)"/><path class="a" d="M2008.146,1284.681a.923.923,0,0,1-.757.386c-.031,0-.063,0-.1-.009a1.724,1.724,0,0,1-.8-.371,1.913,1.913,0,0,1-.666-1.043,1.275,1.275,0,0,1,.15-1.007l.006-.009.427-.69a.847.847,0,0,1,.071-.1l1.192-1.51a1.042,1.042,0,0,1,.909-.413,1.651,1.651,0,0,1,.939.366l.113.089.033.039a1.555,1.555,0,0,1,.449.787c0,.012.015.044.027.075l.008.205a1.545,1.545,0,0,1-.286.946Z" transform="translate(-1999.954 -1259.799)"/><path class="a" d="M2011.225,1283.4a1.537,1.537,0,0,1-.389.9l-1.325,1.511a.921.921,0,0,1-.689.292.745.745,0,0,1-.2-.033,1.79,1.79,0,0,1-.752-.475,1.954,1.954,0,0,1-.544-1.125,1.271,1.271,0,0,1,.259-.981l.009-.009.5-.628a1.061,1.061,0,0,1,.08-.089l.719-.839a.992.992,0,0,1,.779-.307,1.289,1.289,0,0,1,.169.019,1.687,1.687,0,0,1,.89.488l.1.1.027.042a1.6,1.6,0,0,1,.359.842.8.8,0,0,0,.02.078Z" transform="translate(-1999.178 -1258.935)"/><path class="a" d="M2008.7,1278.122c.322.526,3.053,4.342,3.053,4.342,1.533,2.153-.409,3.464-1,2.906" transform="translate(-1998.48 -1260.708)"/><path class="a" d="M2010.193,1276.56c0,.009,2.17,3.288,2.936,4.384,1.043,1.49-.878,4.334-2.894,1.251" transform="translate(-1997.72 -1261.5)"/><path class="a" d="M2013.964,1277.31l.4.673c1,1.634-1.557,3.22-2.764,1.391" transform="translate(-1997.005 -1261.119)"/><path class="a" d="M2004.7,1283.029l-.938-1.162a9.674,9.674,0,0,1,.631-12.161c.1-.11.2-.217.306-.324a9.309,9.309,0,0,1,5.772-2.768q.539-.047,1.07-.047c.309,0,.615.012.915.036a12.654,12.654,0,0,1,4.278,1.111" transform="translate(-2001.917 -1266.567)"/><path class="a" d="M2010.729,1272.98l-.006.014a1.844,1.844,0,0,1-.087.284,1.908,1.908,0,0,1-1.753,1.193,1.852,1.852,0,0,1-1.236-.482,1.539,1.539,0,0,1-.128-.114,2,2,0,0,1-.546-1.38,1.911,1.911,0,1,1,3.821,0A2.078,2.078,0,0,1,2010.729,1272.98Z" transform="translate(-1999.353 -1264.565)"/><path class="a" d="M2008.408,1274.608c.814,2.68-2.1,4.358-3.6,1.912-.952-1.552-1.367-4.773,2.846-7.993a7.651,7.651,0,0,1,8.834-.458,9.845,9.845,0,0,1,1.375,1.181,9.713,9.713,0,0,1,.666,12.305c-.235.313-.8,1.057-.8,1.057l-5.745-9.2" transform="translate(-2000.77 -1266.421)"/></g></svg>