<svg xmlns="http://www.w3.org/2000/svg" width="23.634" height="23.633" viewBox="0 0 23.634 23.633"><defs><style>.a{fill:none;stroke:#093ca0;stroke-linecap:round;stroke-miterlimit:10;stroke-width:1.5px;}</style></defs><g transform="translate(0.135 0.135)"><path class="a" d="M.5,5.419V1.73A1.162,1.162,0,0,1,1.73.5H5.419" transform="translate(0.115 0.115)"/><path class="a" d="M14.5.5h3.689a1.162,1.162,0,0,1,1.23,1.23V5.419" transform="translate(3.33 0.115)"/><path class="a" d="M19.419,14.5v3.689a1.162,1.162,0,0,1-1.23,1.23H14.5" transform="translate(3.33 3.33)"/><path class="a" d="M5.419,19.419H1.73A1.162,1.162,0,0,1,.5,18.189V14.5" transform="translate(0.115 3.33)"/><line class="a" x2="7.378" transform="translate(7.993 11.682)"/><line class="a" y2="7.378" transform="translate(11.682 7.993)"/></g></svg>