<svg xmlns="http://www.w3.org/2000/svg" width="24.752" height="23.815" viewBox="0 0 24.752 23.815"><defs><style>.a{fill:none;stroke:#093ca0;stroke-linecap:round;stroke-linejoin:round;stroke-width:1.5px;}</style></defs><g transform="translate(0.75 0.759)"><rect class="a" width="23.252" height="16.306" rx="2.001" transform="translate(0 6)"/><path class="a" d="M1983.3,1272.088l10.862-5.69a2.711,2.711,0,0,1,3.66,1.143l2.382,4.547" transform="translate(-1980.382 -1266.087)"/><line class="a" y1="3.956" x2="7.287" transform="translate(10.464 2.044)"/><path class="a" d="M1994.946,1268.323a4.556,4.556,0,0,1,4.556,4.556v1.363" transform="translate(-1976.25 -1265.294)"/><path class="a" d="M1981.147,1274.376v-1.5a4.556,4.556,0,0,1,4.556-4.556h4.037" transform="translate(-1981.147 -1265.294)"/><path class="a" d="M2000.113,1274.265h-3.756a3.132,3.132,0,0,0-3.131,3.131h0a3.13,3.13,0,0,0,3.131,3.13h3.756" transform="translate(-1976.861 -1263.185)"/><circle class="a" cx="1.091" cy="1.091" r="1.091" transform="translate(18.246 13.023)"/></g></svg>